HIERARCHY
ROOT hip
{
  OFFSET 0 0 0
  CHANNELS 6 Xposition Yposition Zposition Zrotation Yrotation Xrotation
  JOINT abdomen
  {
    OFFSET 0 20.6881 -0.73152
    CHANNELS 3 Zrotation Xrotation Yrotation
    JOINT chest
    {
      OFFSET 0 11.7043 -0.48768
      CHANNELS 3 Zrotation Xrotation Yrotation
      JOINT neck
      {
        OFFSET 0 22.1894 -2.19456
        CHANNELS 3 Zrotation Xrotation Yrotation
        JOINT head
        {
          OFFSET -0.24384 7.07133 1.2192
          CHANNELS 3 Zrotation Xrotation Yrotation
          JOINT leftEye
          {
            OFFSET 4.14528 8.04674 8.04672
            CHANNELS 3 Zrotation Xrotation Yrotation
            End Site
            {
              OFFSET 1 0 0
            }
          }
          JOINT rightEye
          {
            OFFSET -3.6576 8.04674 8.04672
            CHANNELS 3 Zrotation Xrotation Yrotation
            End Site
            {
              OFFSET 1 0 0
            }
          }
        }
      }
      JOINT rCollar
      {
        OFFSET -2.68224 19.2634 -4.8768
        CHANNELS 3 Zrotation Xrotation Yrotation
        JOINT rShldr
        {
          OFFSET -8.77824 -1.95073 1.46304
          CHANNELS 3 Zrotation Xrotation Yrotation
          JOINT rForeArm
          {
            OFFSET -28.1742 -1.7115 0.48768
            CHANNELS 3 Zrotation Xrotation Yrotation
            JOINT rHand
            {
              OFFSET -22.5879 0.773209 7.07136
              CHANNELS 3 Zrotation Xrotation Yrotation
              JOINT rThumb1
              {
                OFFSET -1.2192 -0.487915 3.41376
                CHANNELS 3 Zrotation Xrotation Yrotation
                JOINT rThumb2
                {
                  OFFSET -3.37035 -0.52449 3.41376
                  CHANNELS 3 Zrotation Xrotation Yrotation
                  End Site
                  {
                    OFFSET -1.78271 -1.18214 1.43049
                  }
                }
              }
              JOINT rIndex1
              {
                OFFSET -7.75947 0.938293 5.60832
                CHANNELS 3 Zrotation Xrotation Yrotation
                JOINT rIndex2
                {
                  OFFSET -2.54057 -0.884171 1.56538
                  CHANNELS 3 Zrotation Xrotation Yrotation
                  End Site
                  {
                    OFFSET -1.62519 -0.234802 1.16502
                  }
                }
              }
              JOINT rMid1
              {
                OFFSET -8.24714 1.18213 3.41376
                CHANNELS 3 Zrotation Xrotation Yrotation
                JOINT rMid2
                {
                  OFFSET -3.10165 -0.590103 1.0647
                  CHANNELS 3 Zrotation Xrotation Yrotation
                  End Site
                  {
                    OFFSET -2.48547 -0.328903 0.83742
                  }
                }
              }
              JOINT rRing1
              {
                OFFSET -8.82822 0.546677 1.51678
                CHANNELS 3 Zrotation Xrotation Yrotation
                JOINT rRing2
                {
                  OFFSET -2.60934 -0.819778 -0.0198488
                  CHANNELS 3 Zrotation Xrotation Yrotation
                  End Site
                  {
                    OFFSET -2.33842 -0.294052 0.168128
                  }
                }
              }
              JOINT rPinky1
              {
                OFFSET -8.27202 -0.0477905 -0.4584
                CHANNELS 3 Zrotation Xrotation Yrotation
                JOINT rPinky2
                {
                  OFFSET -1.82734 -0.647385 -0.700984
                  CHANNELS 3 Zrotation Xrotation Yrotation
                  End Site
                  {
                    OFFSET -1.69225 -0.51767 -0.607171
                  }
                }
              }
            }
          }
        }
      }
      JOINT lCollar
      {
        OFFSET 2.68224 19.2634 -4.8768
        CHANNELS 3 Zrotation Xrotation Yrotation
        JOINT lShldr
        {
          OFFSET 8.77824 -1.95073 1.46304
          CHANNELS 3 Zrotation Xrotation Yrotation
          JOINT lForeArm
          {
            OFFSET 28.1742 -1.7115 0.48768
            CHANNELS 3 Zrotation Xrotation Yrotation
            JOINT lHand
            {
              OFFSET 22.5879 0.773209 7.07136
              CHANNELS 3 Zrotation Xrotation Yrotation
              JOINT lThumb1
              {
                OFFSET 1.2192 -0.487915 3.41376
                CHANNELS 3 Zrotation Xrotation Yrotation
                JOINT lThumb2
                {
                  OFFSET 3.37035 -0.52449 3.41376
                  CHANNELS 3 Zrotation Xrotation Yrotation
                  End Site
                  {
                    OFFSET 1.78271 -1.18214 1.43049
                  }
                }
              }
              JOINT lIndex1
              {
                OFFSET 7.75947 0.938293 5.60832
                CHANNELS 3 Zrotation Xrotation Yrotation
                JOINT lIndex2
                {
                  OFFSET 2.54057 -0.884171 1.56538
                  CHANNELS 3 Zrotation Xrotation Yrotation
                  End Site
                  {
                    OFFSET 1.62519 -0.234802 1.16502
                  }
                }
              }
              JOINT lMid1
              {
                OFFSET 8.24714 1.18213 3.41376
                CHANNELS 3 Zrotation Xrotation Yrotation
                JOINT lMid2
                {
                  OFFSET 3.10165 -0.590103 1.0647
                  CHANNELS 3 Zrotation Xrotation Yrotation
                  End Site
                  {
                    OFFSET 2.48547 -0.328903 0.83742
                  }
                }
              }
              JOINT lRing1
              {
                OFFSET 8.82822 0.546677 1.51678
                CHANNELS 3 Zrotation Xrotation Yrotation
                JOINT lRing2
                {
                  OFFSET 2.60934 -0.819778 -0.0198488
                  CHANNELS 3 Zrotation Xrotation Yrotation
                  End Site
                  {
                    OFFSET 2.33842 -0.294052 0.168128
                  }
                }
              }
              JOINT lPinky1
              {
                OFFSET 8.27202 -0.0477905 -0.4584
                CHANNELS 3 Zrotation Xrotation Yrotation
                JOINT lPinky2
                {
                  OFFSET 1.82734 -0.647385 -0.700984
                  CHANNELS 3 Zrotation Xrotation Yrotation
                  End Site
                  {
                    OFFSET 1.69225 -0.51767 -0.607171
                  }
                }
              }
            }
          }
        }
      }
    }
  }
  JOINT rButtock
  {
    OFFSET -8.77824 4.35084 1.2192
    CHANNELS 3 Zrotation Xrotation Yrotation
    JOINT rThigh
    {
      OFFSET 0 -1.70687 -2.19456
      CHANNELS 3 Zrotation Xrotation Yrotation
      JOINT rShin
      {
        OFFSET 0 -36.8199 0.73152
        CHANNELS 3 Zrotation Xrotation Yrotation
        JOINT rFoot
        {
          OFFSET 0.73152 -45.1104 -5.12064
          CHANNELS 3 Zrotation Xrotation Yrotation
          End Site
          {
            OFFSET -1.1221 -3.69964 12.103
          }
        }
      }
    }
  }
  JOINT lButtock
  {
    OFFSET 8.77824 4.35084 1.2192
    CHANNELS 3 Zrotation Xrotation Yrotation
    JOINT lThigh
    {
      OFFSET 0 -1.70687 -2.19456
      CHANNELS 3 Zrotation Xrotation Yrotation
      JOINT lShin
      {
        OFFSET 0 -36.8199 0.73152
        CHANNELS 3 Zrotation Xrotation Yrotation
        JOINT lFoot
        {
          OFFSET -0.73152 -45.1104 -5.12064
          CHANNELS 3 Zrotation Xrotation Yrotation
          End Site
          {
            OFFSET 1.1221 -3.69964 12.103
          }
        }
      }
    }
  }
}
MOTION
Frames:	4
Frame Time:	0.00833333
24.9218 85.1932 94.3066 0.0 0.0 0.0 0.57286 -0.00324247 0.0163891 0.158163 -0.00505493 0.0274048 4.29821e-15 -3.18055e-15 5.59082e-17 1.29427e-14 -6.36111e-15 1.87914e-16 -0.0 0.0 0.0 -0.0 0.0 0.0 2.13569e-15 2.13538e-18 2.48481e-16 4.76919e-14 1.18028e-16 1.59028e-15 7.7685e-13 -2.33771e-13 3.18055e-15 8.91015e-12 2.31336e-13 1.08139e-13 2.10139e-11 -7.167e-15 2.79889e-13 3.62834e-11 -1.59028e-14 4.66746e-13 2.10191e-11 -3.97569e-15 2.67167e-13 7.73091 5.47488 0.417314 2.10134e-11 -6.85807e-15 2.79889e-13 2.90554 0.965183 0.102902 2.1022e-11 -6.65929e-15 2.78299e-13 10.2786 0.731801 0.0259123 2.10107e-11 -6.36111e-15 2.8625e-13 2.22167 -0.733487 -0.20892 2.23771e-15 3.10601e-18 -1.49089e-16 4.17898e-14 2.17421e-16 0.0 7.77844e-13 2.35162e-13 3.18055e-15 8.90237e-12 -2.26043e-13 1.33583e-13 2.10022e-11 1.55875e-14 2.73528e-13 3.62687e-11 2.54444e-14 4.8901e-13 2.09964e-11 1.70955e-14 2.8625e-13 -7.73091 5.47488 -0.417314 2.10017e-11 1.63003e-14 2.83069e-13 -2.90554 0.965183 -0.102902 2.09919e-11 1.59028e-14 2.76708e-13 -10.2786 0.731801 -0.0259123 2.10052e-11 1.63003e-14 2.67167e-13 -2.22167 -0.733487 0.20892 -2.03217e-16 0.0 -3.88251e-19 0.920479 -4.54482 -0.0776218 -0.0018953 2.68069 -0.007636 -0.489926 1.86451 0.0936574 2.03217e-16 0.0 3.88251e-19 -0.0476881 -2.33549 0.0218145 0.00803124 -1.32109 0.0687449 0.481241 3.65688 -0.128853
23.5448 82.6231 90.9487 -4.4562 -4.5383 15.219 2.03405 -5.38775 1.61416 -0.699362 -0.775487 0.38815 -7.76678 8.75973 -2.65731 19.529 -9.63557 -2.09968 -0.0 0.0 0.0 -0.0 0.0 0.0 2.66757e-14 -3.06359e-14 -9.28619e-15 23.1262 12.0472 0.548413 -9.7187 -6.5774 12.1146 0.0320358 -3.97327 -0.553572 -1.0577e-10 5.15182e-10 -7.22835e-11 -1.81298e-10 8.88195e-10 -1.2626e-10 -1.05766e-10 5.15187e-10 -7.22947e-11 7.73091 5.47488 0.417314 -1.05769e-10 5.15182e-10 -7.22828e-11 2.90554 0.965183 0.102902 -1.05762e-10 5.15184e-10 -7.22841e-11 10.2786 0.731801 0.0259123 -1.05773e-10 5.15183e-10 -7.22764e-11 2.22167 -0.733487 -0.20892 2.67921e-14 -3.06354e-14 -9.59874e-15 -22.183 12.6891 1.65122 12.2956 -9.2605 -13.5709 -0.485817 -15.5715 1.9077 1.4017e-10 3.6039e-10 1.13034e-10 2.35908e-10 6.02332e-10 1.99386e-10 1.40166e-10 3.60394e-10 1.13046e-10 -7.73091 5.47488 -0.417314 1.4017e-10 3.60391e-10 1.13043e-10 -2.90554 0.965183 -0.102902 1.40162e-10 3.60391e-10 1.13037e-10 -10.2786 0.731801 -0.0259123 1.40175e-10 3.6039e-10 1.13029e-10 -2.22167 -0.733487 0.20892 -2.03217e-16 0.0 -3.88251e-19 1.63315 -9.79449 -4.19436 -0.00805041 8.63762 0.055715 0.208792 -3.11504 6.067 2.03217e-16 0.0 3.88251e-19 1.839 -7.85849 1.9676 -0.00144256 5.76643 -0.0526441 0.545161 -0.792543 0.724853
23.5412 82.6238 90.9503 -4.4636 -4.5639 15.2121 3.91154 -11.0635 3.35054 -1.5952 -1.59105 0.76957 -15.0549 17.9556 -5.67992 39.3607 -19.7752 -4.52741 -0.0 0.0 0.0 -0.0 0.0 0.0 5.57846e-14 -6.65914e-14 -1.84186e-14 47.2992 24.7764 1.2172 -16.9932 -12.5318 25.3932 -0.0183174 -8.1607 -1.14607 -2.66934e-10 1.1908e-09 -1.69967e-10 -4.57858e-10 2.05303e-09 -2.9678e-10 -2.66931e-10 1.1908e-09 -1.69976e-10 7.73091 5.47488 0.417314 -2.66931e-10 1.1908e-09 -1.69965e-10 2.90554 0.965183 0.102902 -2.66926e-10 1.1908e-09 -1.69967e-10 10.2786 0.731801 0.0259123 -2.66936e-10 1.1908e-09 -1.69959e-10 2.22167 -0.733487 -0.20892 5.59174e-14 -6.65914e-14 -1.86392e-14 -46.5078 26.0657 3.68355 20.5153 -17.2781 -28.962 0.310411 -31.9686 4.45714 2.94218e-10 8.29842e-10 2.46906e-10 4.94508e-10 1.3884e-09 4.36055e-10 2.94215e-10 8.29848e-10 2.46917e-10 -7.73091 5.47488 -0.417314 2.94219e-10 8.29844e-10 2.46914e-10 -2.90554 0.965183 -0.102902 2.94211e-10 8.29844e-10 2.46909e-10 -10.2786 0.731801 -0.0259123 2.94224e-10 8.2984e-10 2.46901e-10 -2.22167 -0.733487 0.20892 -2.03217e-16 0.0 -3.88251e-19 1.54212 -15.2286 -8.72484 -0.0293367 14.9353 0.125661 2.07649 -8.21794 12.4885 2.03217e-16 0.0 3.88251e-19 4.25263 -13.6741 4.10548 0.0218447 13.2586 -0.185317 0.756646 -5.49317 1.63071
23.5401 82.6249 90.953 -4.4672 -4.5679 15.2023 5.88754 -16.1052 4.9844 -2.38529 -2.31597 1.11044 -20.6382 26.04 -8.77568 56.2208 -28.7401 -7.08686 -0.0 0.0 0.0 -0.0 0.0 0.0 7.57557e-14 -9.19119e-14 -2.83555e-14 68.5473 36.1267 1.99218 -21.164 -16.1825 37.8443 -0.138504 -11.9153 -1.69322 -3.59338e-10 1.54556e-09 -2.1741e-10 -6.16462e-10 2.66462e-09 -3.79715e-10 -3.59336e-10 1.54557e-09 -2.17418e-10 7.73091 5.47488 0.417314 -3.59333e-10 1.54556e-09 -2.17408e-10 2.90554 0.965183 0.102902 -3.59329e-10 1.54557e-09 -2.17409e-10 10.2786 0.731801 0.0259123 -3.59339e-10 1.54556e-09 -2.17402e-10 2.22167 -0.733487 -0.20892 7.5901e-14 -9.19124e-14 -2.8498e-14 -69.2375 37.9232 6.13073 24.209 -21.43 -43.8677 2.83469 -46.4581 8.01652 3.78506e-10 1.08114e-09 3.38556e-10 6.35188e-10 1.80694e-09 5.97179e-10 3.78505e-10 1.08115e-09 3.38566e-10 -7.73091 5.47488 -0.417314 3.78508e-10 1.08114e-09 3.38563e-10 -2.90554 0.965183 -0.102902 3.78502e-10 1.08114e-09 3.38559e-10 -10.2786 0.731801 -0.0259123 3.78513e-10 1.08114e-09 3.38552e-10 -2.22167 -0.733487 0.20892 -2.03217e-16 0.0 -3.88251e-19 0.687599 -19.888 -13.0344 -0.0622165 20.5514 0.192773 4.72619 -12.4745 18.4371 2.03217e-16 0.0 3.88251e-19 6.79171 -18.8176 6.13269 0.0737912 19.9412 -0.313376 1.07449 -9.68278 2.46669
